<svg xmlns="http://www.w3.org/2000/svg" style="display:none">
  <defs>
    <!-- Home -->
    <symbol id="icon-home" viewBox="0 0 24 24"><path d="M12 3L2 12h3v8h6v-6h2v6h6v-8h3L12 3z" fill="currentColor"/></symbol>
    <!-- Traffic light -->
    <symbol id="icon-traffic-light" viewBox="0 0 24 24"><path d="M12 2C8.13 2 5 5.13 5 9v6c0 3.87 3.13 7 7 7s7-3.13 7-7V9c0-3.87-3.13-7-7-7zm0 16c-1.1 0-2-.9-2-2s.9-2 2-2 2 .9 2 2-.9 2-2 2zm0-6c-1.1 0-2-.9-2-2s.9-2 2-2 2 .9 2 2-.9 2-2 2zm0-6c-1.1 0-2-.9-2-2s.9-2 2-2 2 .9 2 2-.9 2-2 2z" fill="currentColor"/></symbol>
    <!-- Shield -->
    <symbol id="icon-shield" viewBox="0 0 24 24"><path d="M12 1L3 5v6c0 5.55 3.84 10.74 9 12 5.16-1.26 9-6.45 9-12V5l-9-4zm0 10.99h7c-.53 4.12-3.28 7.79-7 8.94V12H5V6.3l7-3.11v8.8z" fill="currentColor"/></symbol>
    <!-- Pin / Location -->
    <symbol id="icon-pin" viewBox="0 0 24 24"><path d="M12 2C8.13 2 5 5.13 5 9c0 5.25 7 13 7 13s7-7.75 7-13c0-3.87-3.13-7-7-7zm0 9.5c-1.38 0-2.5-1.12-2.5-2.5s1.12-2.5 2.5-2.5 2.5 1.12 2.5 2.5-1.12 2.5-2.5 2.5z" fill="currentColor"/></symbol>
    <!-- User -->
    <symbol id="icon-user" viewBox="0 0 24 24"><path d="M12 12c2.21 0 4-1.79 4-4s-1.79-4-4-4-4 1.79-4 4 1.79 4 4 4zm0 2c-2.67 0-8 1.34-8 4v2h16v-2c0-2.66-5.33-4-8-4z" fill="currentColor"/></symbol>
    <!-- Settings / Gear -->
    <symbol id="icon-settings" viewBox="0 0 24 24"><path d="M19.14 12.94c.04-.3.06-.61.06-.94 0-.32-.02-.64-.07-.94l2.03-1.58a.49.49 0 00.12-.61l-1.92-3.32a.488.488 0 00-.59-.22l-2.39.96c-.5-.38-1.03-.7-1.62-.94l-.36-2.54a.484.484 0 00-.48-.41h-3.84c-.24 0-.43.17-.47.41l-.36 2.54c-.59.24-1.13.57-1.62.94l-2.39-.96c-.22-.08-.47 0-.59.22L2.74 8.87c-.12.21-.08.47.12.61l2.03 1.58c-.05.3-.07.62-.07.94s.02.64.07.94l-2.03 1.58a.49.49 0 00-.12.61l1.92 3.32c.12.22.37.29.59.22l2.39-.96c.5.38 1.03.7 1.62.94l.36 2.54c.05.24.24.41.48.41h3.84c.24 0 .44-.17.47-.41l.36-2.54c.59-.24 1.13-.56 1.62-.94l2.39.96c.22.08.47 0 .59-.22l1.92-3.32c.12-.22.07-.47-.12-.61l-2.01-1.58zM12 15.6c-1.98 0-3.6-1.62-3.6-3.6s1.62-3.6 3.6-3.6 3.6 1.62 3.6 3.6-1.62 3.6-3.6 3.6z" fill="currentColor"/></symbol>
    <!-- Sun -->
    <symbol id="icon-sun" viewBox="0 0 24 24"><path d="M12 7c-2.76 0-5 2.24-5 5s2.24 5 5 5 5-2.24 5-5-2.24-5-5-5zM2 13h2c.55 0 1-.45 1-1s-.45-1-1-1H2c-.55 0-1 .45-1 1s.45 1 1 1zm18 0h2c.55 0 1-.45 1-1s-.45-1-1-1h-2c-.55 0-1 .45-1 1s.45 1 1 1zM11 2v2c0 .55.45 1 1 1s1-.45 1-1V2c0-.55-.45-1-1-1s-1 .45-1 1zm0 18v2c0 .55.45 1 1 1s1-.45 1-1v-2c0-.55-.45-1-1-1s-1 .45-1 1zM5.99 4.58a.996.996 0 00-1.41 0 .996.996 0 000 1.41l1.06 1.06c.39.39 1.03.39 1.41 0s.39-1.03 0-1.41L5.99 4.58zm12.37 12.37a.996.996 0 00-1.41 0 .996.996 0 000 1.41l1.06 1.06c.39.39 1.03.39 1.41 0a.996.996 0 000-1.41l-1.06-1.06zm1.06-10.96a.996.996 0 000-1.41.996.996 0 00-1.41 0l-1.06 1.06c-.39.39-.39 1.03 0 1.41s1.03.39 1.41 0l1.06-1.06zM7.05 18.36a.996.996 0 000-1.41.996.996 0 00-1.41 0l-1.06 1.06c-.39.39-.39 1.03 0 1.41s1.03.39 1.41 0l1.06-1.06z" fill="currentColor"/></symbol>
    <!-- Moon -->
    <symbol id="icon-moon" viewBox="0 0 24 24"><path d="M12 3a9 9 0 109 9c0-.46-.04-.92-.1-1.36a5.389 5.389 0 01-4.4 2.26 5.403 5.403 0 01-3.14-9.8c-.44-.06-.9-.1-1.36-.1z" fill="currentColor"/></symbol>
    <!-- Stop -->
    <symbol id="icon-stop" viewBox="0 0 24 24"><path d="M6 6h12v12H6z" fill="currentColor"/></symbol>
    <!-- Warning -->
    <symbol id="icon-warning" viewBox="0 0 24 24"><path d="M1 21h22L12 2 1 21zm12-3h-2v-2h2v2zm0-4h-2v-4h2v4z" fill="currentColor"/></symbol>
    <!-- Pedestrian -->
    <symbol id="icon-pedestrian" viewBox="0 0 24 24"><path d="M15.5 5.5c1.1 0 2-.9 2-2s-.9-2-2-2-2 .9-2 2 .9 2 2 2zM13.5 22v-6h-1l-2-8c-.2-.8-.8-1.4-1.6-1.6-.8-.2-1.6 0-2.2.5L4 10.5V16h2v-4.5l1.8-1.3L7 22h2l1-7 2 7h1.5zm6-7.5V22h-1.5v-7l-1.5-1-1 4h-1.5l1.3-6.5L17 11h2.5c.8 0 1.5-.7 1.5-1.5V6h-1.5v3.5H19z" fill="currentColor"/></symbol>
    <!-- No Entry -->
    <symbol id="icon-no-entry" viewBox="0 0 24 24"><path d="M12 2C6.48 2 2 6.48 2 12s4.48 10 10 10 10-4.48 10-10S17.52 2 12 2zm5 11H7v-2h10v2z" fill="currentColor"/></symbol>
    <!-- Arrow Left -->
    <symbol id="icon-arrow-left" viewBox="0 0 24 24"><path d="M14 7l-5 5 5 5V7z" fill="currentColor"/></symbol>
    <!-- Parking -->
    <symbol id="icon-parking" viewBox="0 0 24 24"><path d="M13 3H5v18h4v-5h4c3.3 0 6-2.7 6-6s-2.7-6-6-6zm0 8H9V7h4c1.7 0 3 1.3 3 3s-1.3 3-3 3z" fill="currentColor"/></symbol>
    <!-- No Pedestrians -->
    <symbol id="icon-no-pedestrians" viewBox="0 0 24 24"><path d="M15.5 5.5c1.1 0 2-.9 2-2s-.9-2-2-2-2 .9-2 2 .9 2 2 2zM13.5 22v-6h-1l-2-8c-.2-.8-.8-1.4-1.6-1.6-.8-.2-1.6 0-2.2.5L4 10.5V16h2v-4.5l1.8-1.3L7 22h2l1-7 2 7h1.5zM12 2l9 9-1.4 1.4L12 4.8 4.4 12.4 3 11l9-9z" fill="currentColor"/></symbol>
    <!-- Yield -->
    <symbol id="icon-yield" viewBox="0 0 24 24"><path d="M12 2L1 21h22L12 2zm0 4l8 13H4l8-13z" fill="currentColor"/></symbol>
    <!-- Road Work -->
    <symbol id="icon-road-work" viewBox="0 0 24 24"><path d="M18.5 4c-.83 0-1.5.67-1.5 1.5v2.5c0 .83.67 1.5 1.5 1.5S20 8.83 20 8V5.5c0-.83-.67-1.5-1.5-1.5zM20 10h-3v6h-2l3.5 7 3.5-7h-2v-6zM5.5 4C4.67 4 4 4.67 4 5.5V8c0 .83.67 1.5 1.5 1.5S7 8.83 7 8V5.5C7 4.67 6.33 4 5.5 4zM7 10H4v6H2l3.5 7L9 16H7v-6zm6-6c-.83 0-1.5.67-1.5 1.5V11c0 .83.67 1.5 1.5 1.5s1.5-.67 1.5-1.5V5.5c0-.83-.67-1.5-1.5-1.5z" fill="currentColor"/></symbol>
    <!-- No Stopping -->
    <symbol id="icon-no-stopping" viewBox="0 0 24 24"><path d="M12 2C6.48 2 2 6.48 2 12s4.48 10 10 10 10-4.48 10-10S17.52 2 12 2zm5 11H7v-2h10v2z" fill="currentColor"/></symbol>
    <!-- Bicycle -->
    <symbol id="icon-bicycle" viewBox="0 0 24 24"><path d="M15.5 5.5c1.1 0 2-.9 2-2s-.9-2-2-2-2 .9-2 2 .9 2 2 2zM13 22v-5l-2.5-1.5.7-3.5c.7 1.1 1.9 2 3.8 2v-2c-1.1 0-2-.5-2.5-1.2L10.5 8c-.3-.5-.8-.8-1.4-.8-.2 0-.5.1-.7.2L5 9.2V14h2v-3.2l1.8-1-1.3 6.5L3 22h2l3-6 2 1.5V22h3zM17 12c-2.8 0-5 2.2-5 5s2.2 5 5 5 5-2.2 5-5-2.2-5-5-5zm0 8.5c-1.9 0-3.5-1.6-3.5-3.5s1.6-3.5 3.5-3.5 3.5 1.6 3.5 3.5-1.6 3.5-3.5 3.5z" fill="currentColor"/></symbol>
    <!-- Hospital -->
    <symbol id="icon-hospital" viewBox="0 0 24 24"><path d="M19 3H5c-1.1 0-2 .9-2 2v14c0 1.1.9 2 2 2h14c1.1 0 2-.9 2-2V5c0-1.1-.9-2-2-2zm-3 10h-3v3h-2v-3H8v-2h3V8h2v3h3v2z" fill="currentColor"/></symbol>
    <!-- Fuel -->
    <symbol id="icon-fuel" viewBox="0 0 24 24"><path d="M19.77 7.23l.01-.01-3.72-3.72L15 4.56l2.11 2.11c-.94.36-1.61 1.26-1.61 2.33 0 1.38 1.12 2.5 2.5 2.5.36 0 .69-.08 1-.21v7.21c0 .55-.45 1-1 1s-1-.45-1-1V14c0-1.1-.9-2-2-2h-1V5c0-1.1-.9-2-2-2H6c-1.1 0-2 .9-2 2v16h10v-7.5h1.5v5c0 1.38 1.12 2.5 2.5 2.5s2.5-1.12 2.5-2.5V9c0-.69-.28-1.32-.73-1.77zM12 10H6V5h6v5zm6 0c-.55 0-1-.45-1-1s.45-1 1-1 1 .45 1 1-.45 1-1 1z" fill="currentColor"/></symbol>
    <!-- Restaurant -->
    <symbol id="icon-restaurant" viewBox="0 0 24 24"><path d="M11 9H9V2H7v7H5V2H3v7c0 2.12 1.66 3.84 3.75 3.97V22h2.5v-9.03C11.34 12.84 13 11.12 13 9V2h-2v7zm5-3v8h2.5v8H21V2c-2.76 0-5 2.24-5 4z" fill="currentColor"/></symbol>
    <!-- Emergency Phone -->
    <symbol id="icon-emergency-phone" viewBox="0 0 24 24"><path d="M6.62 10.79c1.44 2.83 3.76 5.14 6.59 6.59l2.2-2.2c.27-.27.67-.36 1.02-.24 1.12.37 2.33.57 3.57.57.55 0 1 .45 1 1V20c0 .55-.45 1-1 1-9.39 0-17-7.61-17-17 0-.55.45-1 1-1h3.5c.55 0 1 .45 1 1 0 1.25.2 2.45.57 3.57.11.35.03.74-.25 1.02l-2.2 2.2z" fill="currentColor"/></symbol>
    <!-- Slippery Road -->
    <symbol id="icon-slippery" viewBox="0 0 24 24"><path d="M12 2L1 21h22L12 2zm0 4l8 13H4l8-13zm-1 7h2v2h-2zm0-4h2v4h-2z" fill="currentColor"/></symbol>
    <!-- Roundabout -->
    <symbol id="icon-roundabout" viewBox="0 0 24 24"><path d="M12 2C6.48 2 2 6.48 2 12s4.48 10 10 10 10-4.48 10-10S17.52 2 12 2zm0 16c-3.31 0-6-2.69-6-6s2.69-6 6-6 6 2.69 6 6-2.69 6-6 6zm0-9c-1.66 0-3 1.34-3 3s1.34 3 3 3 3-1.34 3-3-1.34-3-3-3z" fill="currentColor"/></symbol>
    <!-- Tram -->
    <symbol id="icon-tram" viewBox="0 0 24 24"><path d="M13 2v2h1c.55 0 1 .45 1 1v1H9V5c0-.55.45-1 1-1h1V2H6v2h1v1H6c-1.1 0-2 .9-2 2v10c0 1.1.9 2 2 2h1l-1 3h2l1-3h4l1 3h2l-1-3h1c1.1 0 2-.9 2-2V7c0-1.1-.9-2-2-2h-1V4h1V2H13zM6 7h12v3H6V7zm0 5h12v3H6v-3zm2 6c-.55 0-1-.45-1-1s.45-1 1-1 1 .45 1 1-.45 1-1 1zm8 0c-.55 0-1-.45-1-1s.45-1 1-1 1 .45 1 1-.45 1-1 1z" fill="currentColor"/></symbol>
    <!-- Bridge -->
    <symbol id="icon-bridge" viewBox="0 0 24 24"><path d="M20 4H4c-1.1 0-2 .9-2 2v12c0 1.1.9 2 2 2h16c1.1 0 2-.9 2-2V6c0-1.1-.9-2-2-2zm0 8h-3V9h-2v3H9V9H7v3H4V6h16v6z" fill="currentColor"/></symbol>
    <!-- Bus -->
    <symbol id="icon-bus" viewBox="0 0 24 24"><path d="M4 16c0 .88.46 1.66 1.14 2.05l-.64 1.28c-.11.22-.07.48.09.64.16.17.42.2.64.09l1.32-.66c.41.25.86.44 1.35.54.31.06.62.09.93.09.31 0 .62-.03.93-.09.49-.1.94-.29 1.35-.54l1.32.66c.22.11.48.08.64-.09.16-.16.2-.42.09-.64l-.64-1.28C13.54 17.66 14 16.88 14 16V9c0-2-2-3-6-3S2 7 2 9v7zm4 1.5c-.83 0-1.5-.67-1.5-1.5s.67-1.5 1.5-1.5 1.5.67 1.5 1.5-.67 1.5-1.5 1.5zM4 9h7v3H4V9zm10 0h2v3h-2V9zm0 4h2v3h-2v-3zm-3 4H5v-1h6v1zm4 0h-2v-1h2v1zm-2-8h2v3h-2V9z" fill="currentColor"/></symbol>
    <!-- Info -->
    <symbol id="icon-info" viewBox="0 0 24 24"><path d="M12 2C6.48 2 2 6.48 2 12s4.48 10 10 10 10-4.48 10-10S17.52 2 12 2zm1 15h-2v-6h2v6zm0-8h-2V7h2v2z" fill="currentColor"/></symbol>
    <!-- Target -->
    <symbol id="icon-target" viewBox="0 0 24 24"><path d="M12 2C6.48 2 2 6.48 2 12s4.48 10 10 10 10-4.48 10-10S17.52 2 12 2zm0 18c-4.42 0-8-3.58-8-8s3.58-8 8-8 8 3.58 8 8-3.58 8-8 8zm0-14c-3.31 0-6 2.69-6 6s2.69 6 6 6 6-2.69 6-6-2.69-6-6-6zm0 10c-2.21 0-4-1.79-4-4s1.79-4 4-4 4 1.79 4 4-1.79 4-4 4z" fill="currentColor"/></symbol>
    <!-- Video -->
    <symbol id="icon-video" viewBox="0 0 24 24"><path d="M17 10.5V7c0-.55-.45-1-1-1H4c-.55 0-1 .45-1 1v10c0 .55.45 1 1 1h12c.55 0 1-.45 1-1v-3.5l4 4v-11l-4 4z" fill="currentColor"/></symbol>
    <!-- Book -->
    <symbol id="icon-book" viewBox="0 0 24 24"><path d="M18 2H6c-1.1 0-2 .9-2 2v16c0 1.1.9 2 2 2h12c1.1 0 2-.9 2-2V4c0-1.1-.9-2-2-2zm0 18H6V4h2v8l2.5-1.5L13 12V4h5v16z" fill="currentColor"/></symbol>
    <!-- Heart -->
    <symbol id="icon-heart" viewBox="0 0 24 24"><path d="M12 21.35l-1.45-1.32C5.4 15.36 2 12.28 2 8.5 2 5.42 4.42 3 7.5 3c1.74 0 3.41.81 4.5 2.09C13.09 3.81 14.76 3 16.5 3 19.58 3 22 5.42 22 8.5c0 3.78-3.4 6.86-8.55 11.54L12 21.35z" fill="currentColor"/></symbol>
    <!-- Bookmark -->
    <symbol id="icon-bookmark" viewBox="0 0 24 24"><path d="M17 3H7c-1.1 0-1.99.9-1.99 2L5 21l7-3 7 3V5c0-1.1-.9-2-2-2z" fill="currentColor"/></symbol>
    <!-- Share -->
    <symbol id="icon-share" viewBox="0 0 24 24"><path d="M18 16.08c-.76 0-1.44.3-1.96.77L8.91 12.7c.05-.23.09-.46.09-.7s-.04-.47-.09-.7l7.05-4.11c.54.5 1.25.81 2.04.81 1.66 0 3-1.34 3-3s-1.34-3-3-3-3 1.34-3 3c0 .24.04.47.09.7L8.04 9.81C7.5 9.31 6.79 9 6 9c-1.66 0-3 1.34-3 3s1.34 3 3 3c.79 0 1.5-.31 2.04-.81l7.12 4.16c-.05.21-.08.43-.08.65 0 1.61 1.31 2.92 2.92 2.92 1.61 0 2.92-1.31 2.92-2.92s-1.31-2.92-2.92-2.92z" fill="currentColor"/></symbol>
    <!-- Write -->
    <symbol id="icon-write" viewBox="0 0 24 24"><path d="M3 17.25V21h3.75L17.81 9.94l-3.75-3.75L3 17.25zM20.71 7.04c.39-.39.39-1.02 0-1.41l-2.34-2.34c-.39-.39-1.02-.39-1.41 0l-1.83 1.83 3.75 3.75 1.83-1.83z" fill="currentColor"/></symbol>
    <!-- Smoking -->
    <symbol id="icon-smoking" viewBox="0 0 24 24"><path d="M2 17h2v4H2zm16 0h2v4h-2zm-4 0h2v4h-2zm-6 0h2v4H8zm14-4v-2H6c-1.1 0-2 .9-2 2v2h16v-2zm-1-8c-.9 0-1.7.7-1.7 1.6 0 .4.2.9.5 1.2.5.6.9 1.3.9 2.2h2c0-1.3-.7-2.4-1.6-3.1-.3-.3-.5-.7-.5-1.2 0-.5.4-.8.8-.8s.8.3.8.8h2c0-1.6-1.3-2.9-2.9-2.9zm-4 0c-.9 0-1.7.7-1.7 1.6 0 .4.2.9.5 1.2.5.6.9 1.3.9 2.2h2c0-1.3-.7-2.4-1.6-3.1-.3-.3-.5-.7-.5-1.2 0-.5.4-.8.8-.8s.8.3.8.8h2c0-1.6-1.3-2.9-2.9-2.9z" fill="currentColor"/></symbol>
    <!-- Pills / Medication -->
    <symbol id="icon-pills" viewBox="0 0 24 24"><path d="M10.5 4.5c-3.3 0-6 2.7-6 6s2.7 6 6 6 6-2.7 6-6-2.7-6-6-6zm0 2c.8 0 1.5.2 2.1.6l-5.5 5.5c-.4-.6-.6-1.3-.6-2.1 0-2.2 1.8-4 4-4zm3.9 2.9c.4.6.6 1.3.6 2.1 0 2.2-1.8 4-4 4-.8 0-1.5-.2-2.1-.6l5.5-5.5z" fill="currentColor"/></symbol>
    <!-- Trophy -->
    <symbol id="icon-trophy" viewBox="0 0 24 24"><path d="M19 5h-2V3H7v2H5c-1.1 0-2 .9-2 2v1c0 2.55 1.92 4.63 4.39 4.94.63 1.5 1.98 2.63 3.61 2.96V19H7v2h10v-2h-4v-3.1c1.63-.33 2.98-1.46 3.61-2.96C19.08 12.63 21 10.55 21 8V7c0-1.1-.9-2-2-2zM5 8V7h2v3.82C5.84 10.4 5 9.3 5 8zm14 0c0 1.3-.84 2.4-2 2.82V7h2v1z" fill="currentColor"/></symbol>
    <!-- Celebration -->
    <symbol id="icon-celebration" viewBox="0 0 24 24"><path d="M19 9l1.25-2.75L23 5l-2.75-1.25L19 1l-1.25 2.75L15 5l2.75 1.25L19 9zm-7.5.5L9 4 6.5 9.5 1 12l5.5 2.5L9 20l2.5-5.5L17 12l-5.5-2.5zM19 15l-1.25 2.75L15 19l2.75 1.25L19 23l1.25-2.75L23 19l-2.75-1.25L19 15z" fill="currentColor"/></symbol>
    <!-- Thumbs Up -->
    <symbol id="icon-thumbs-up" viewBox="0 0 24 24"><path d="M1 21h4V9H1v12zm22-11c0-1.1-.9-2-2-2h-6.31l.95-4.57.03-.32c0-.41-.17-.79-.44-1.06L14.17 1 7.59 7.59C7.22 7.95 7 8.45 7 9v10c0 1.1.9 2 2 2h9c.83 0 1.54-.5 1.84-1.22l3.02-7.05c.09-.23.14-.47.14-.73v-2z" fill="currentColor"/></symbol>
    <!-- Muscle -->
    <symbol id="icon-muscle" viewBox="0 0 24 24"><path d="M14 4c.8 0 1.6.2 2.3.5l-2.3 2.3V4zm4 3.7c.7.7 1 1.6 1 2.6v2.1l-3.2-3.2L14 12l-1.8-1.8L9 13.4V10h2l4-4H9c-1.1 0-2 .9-2 2v7l4 4 4-4 2 2 2-2h2v3c0 1.1-.9 2-2 2h-3l-1-1-2 2-1-1-2 2-1-1H6v-7H4v-4c0-2.8 2.2-5 5-5h5v-3h5v4h-1z" fill="currentColor"/></symbol>
    <!-- Book Open -->
    <symbol id="icon-book-open" viewBox="0 0 24 24"><path d="M4 6H2v14c0 1.1.9 2 2 2h16v-2H4V6zm16-4H8c-1.1 0-2 .9-2 2v12c0 1.1.9 2 2 2h12c1.1 0 2-.9 2-2V4c0-1.1-.9-2-2-2zm0 14H8V4h12v12z" fill="currentColor"/></symbol>
    <!-- Lightbulb -->
    <symbol id="icon-lightbulb" viewBox="0 0 24 24"><path d="M9 21c0 .55.45 1 1 1h4c.55 0 1-.45 1-1v-1H9v1zm3-19C8.14 2 5 5.14 5 9c0 2.38 1.19 4.47 3 5.74V17c0 .55.45 1 1 1h6c.55 0 1-.45 1-1v-2.26c1.81-1.27 3-3.36 3-5.74 0-3.86-3.14-7-7-7zm2 11.7V16h-4v-2.3C8.48 12.63 7 11.53 7 9c0-2.76 2.24-5 5-5s5 2.24 5 5c0 2.53-1.48 3.63-3 4.7z" fill="currentColor"/></symbol>
    <!-- Star -->
    <symbol id="icon-star" viewBox="0 0 24 24"><path d="M12 17.27L18.18 21l-1.64-7.03L22 9.24l-7.19-.61L12 2 9.19 8.63 2 9.24l5.46 4.73L5.82 21z" fill="currentColor"/></symbol>
    <!-- Car -->
    <symbol id="icon-car" viewBox="0 0 24 24"><path d="M18.92 6.01C18.72 5.42 18.16 5 17.5 5h-11c-.66 0-1.21.42-1.42 1.01L3 12v8c0 .55.45 1 1 1h1c.55 0 1-.45 1-1v-1h12v1c0 .55.45 1 1 1h1c.55 0 1-.45 1-1v-8l-2.08-5.99zM6.5 16c-.83 0-1.5-.67-1.5-1.5S5.67 13 6.5 13s1.5.67 1.5 1.5S7.33 16 6.5 16zm11 0c-.83 0-1.5-.67-1.5-1.5s.67-1.5 1.5-1.5 1.5.67 1.5 1.5-.67 1.5-1.5 1.5zM5 11l1.5-4.5h11L19 11H5z" fill="currentColor"/></symbol>
    <!-- Emergency -->
    <symbol id="icon-emergency" viewBox="0 0 24 24"><path d="M12 2C6.48 2 2 6.48 2 12s4.48 10 10 10 10-4.48 10-10S17.52 2 12 2zm-2 15l-5-5 1.41-1.41L10 14.17l7.59-7.59L19 8l-9 9z" fill="currentColor"/></symbol>
    <!-- Camera -->
    <symbol id="icon-camera" viewBox="0 0 24 24"><path d="M9 2L7.17 4H4c-1.1 0-2 .9-2 2v12c0 1.1.9 2 2 2h16c1.1 0 2-.9 2-2V6c0-1.1-.9-2-2-2h-3.17L15 2H9zm3 15c-2.76 0-5-2.24-5-5s2.24-5 5-5 5 2.24 5 5-2.24 5-5 5z" fill="currentColor"/></symbol>
    <!-- Medal -->
    <symbol id="icon-medal" viewBox="0 0 24 24"><path d="M12 22c3.31 0 6-2.69 6-6s-2.69-6-6-6-6 2.69-6 6 2.69 6 6 6zm0-10c2.21 0 4 1.79 4 4s-1.79 4-4 4-4-1.79-4-4 1.79-4 4-4zm-6-8h4l2.5 6H9.5L7 4zm8 0h4l-2.5 6H13.5L15 4z" fill="currentColor"/></symbol>
    <!-- Checkmark -->
    <symbol id="icon-check" viewBox="0 0 24 24"><path d="M9 16.17L4.83 12l-1.42 1.41L9 19 21 7l-1.41-1.41z" fill="currentColor"/></symbol>
    <!-- Lock -->
    <symbol id="icon-lock" viewBox="0 0 24 24"><path d="M18 8h-1V6c0-2.76-2.24-5-5-5S7 3.24 7 6v2H6c-1.1 0-2 .9-2 2v10c0 1.1.9 2 2 2h12c1.1 0 2-.9 2-2V10c0-1.1-.9-2-2-2zm-6 9c-1.1 0-2-.9-2-2s.9-2 2-2 2 .9 2 2-.9 2-2 2zm3.1-9H8.9V6c0-1.71 1.39-3.1 3.1-3.1s3.1 1.39 3.1 3.1v2z" fill="currentColor"/></symbol>
    <!-- Gold Medal -->
    <symbol id="icon-gold-medal" viewBox="0 0 24 24"><path d="M12 2C8.13 2 5 5.13 5 9c0 2.38 1.19 4.47 3 5.74V17c0 .55.45 1 1 1h6c.55 0 1-.45 1-1v-2.26c1.81-1.27 3-3.36 3-5.74 0-3.87-3.13-7-7-7zm0 12c-2.76 0-5-2.24-5-5s2.24-5 5-5 5 2.24 5 5-2.24 5-5 5z" fill="currentColor"/></symbol>
    <!-- Door -->
    <symbol id="icon-door" viewBox="0 0 24 24"><path d="M18 2H6c-1.1 0-2 .9-2 2v18h16V4c0-1.1-.9-2-2-2zm-5 12h-2v-2h2v2zm3-4H8V6h8v4z" fill="currentColor"/></symbol>
    <!-- Trash -->
    <symbol id="icon-trash" viewBox="0 0 24 24"><path d="M6 19c0 1.1.9 2 2 2h8c1.1 0 2-.9 2-2V7H6v12zM8 9h8v10H8V9zm7.5-5l-1-1h-5l-1 1H5v2h14V4h-3.5z" fill="currentColor"/></symbol>
    <!-- Empty Mail -->
    <symbol id="icon-empty-mail" viewBox="0 0 24 24"><path d="M20 4H4c-1.1 0-1.99.9-1.99 2L2 18c0 1.1.9 2 2 2h16c1.1 0 2-.9 2-2V6c0-1.1-.9-2-2-2zm0 14H4V8l8 5 8-5v10z" fill="currentColor"/></symbol>
    <!-- Phone -->
    <symbol id="icon-phone" viewBox="0 0 24 24"><path d="M6.62 10.79c1.44 2.83 3.76 5.14 6.59 6.59l2.2-2.2c.27-.27.67-.36 1.02-.24 1.12.37 2.33.57 3.57.57.55 0 1 .45 1 1V20c0 .55-.45 1-1 1-9.39 0-17-7.61-17-17 0-.55.45-1 1-1h3.5c.55 0 1 .45 1 1 0 1.25.2 2.45.57 3.57.11.35.03.74-.25 1.02l-2.2 2.2z" fill="currentColor"/></symbol>
    <!-- Map -->
    <symbol id="icon-map" viewBox="0 0 24 24"><path d="M20.5 3l-.16.03L15 5.1 9 3 3.36 4.9c-.21.07-.36.25-.36.48V20.5c0 .28.22.5.5.5l.16-.03L9 18.9l6 2.1 5.64-1.9c.21-.07.36-.25.36-.48V3.5c0-.28-.22-.5-.5-.5zM15 19l-6-2.11V5l6 2.11V19z" fill="currentColor"/></symbol>
    <!-- Chat -->
    <symbol id="icon-chat" viewBox="0 0 24 24"><path d="M20 2H4c-1.1 0-2 .9-2 2v18l4-4h14c1.1 0 2-.9 2-2V4c0-1.1-.9-2-2-2zm0 14H5.17L4 17.17V4h16v12z" fill="currentColor"/></symbol>
    <!-- Police -->
    <symbol id="icon-police" viewBox="0 0 24 24"><path d="M12 1L3 5v6c0 5.55 3.84 10.74 9 12 5.16-1.26 9-6.45 9-12V5l-9-4zm0 10.99h7c-.53 4.12-3.28 7.79-7 8.94V12H5V6.3l7-3.11v8.8z" fill="currentColor"/></symbol>
    <!-- Wave / Hello -->
    <symbol id="icon-wave" viewBox="0 0 24 24"><path d="M6.9 3.5c-1.1 0-2.1.5-2.8 1.4L.6 10.2c-.6.8-.7 1.8-.3 2.7.4.9 1.2 1.4 2.1 1.4h7.6l-.9 4.3c-.2.9.1 1.9.8 2.5.9.9 2.4.9 3.3 0l5.7-5.7c.6-.6.9-1.4.9-2.3V6c0-1.4-1.1-2.5-2.5-2.5H6.9z" fill="currentColor"/></symbol>
  </defs>
</svg>
